<svg xmlns="http://www.w3.org/2000/svg" width="85" height="22" viewBox="0 0 85 22">
    <g fill="none" fill-rule="evenodd">
        <g fill="#231815" fill-rule="nonzero">
            <g>
                <g>
                    <g>
                        <path d="M1.82 5.73h12.038s1.019-.068 1.019-1.633c0-1.564-1.069-1.58-1.069-1.58H1.77S.701 2.481.701 4.096c0 1.582 1.12 1.633 1.12 1.633zM18.55 0c-1.636 0-1.536 1.14-1.536 1.14v19.823S16.931 22 18.55 22c1.62 0 1.62-1.088 1.62-1.088V1.088S20.203 0 18.55 0zM39.037 0C37.4 0 37.5 1.14 37.5 1.14v19.823S37.417 22 39.037 22s1.62-1.088 1.62-1.088V1.088c.016 0 .033-1.088-1.62-1.088zM80.461 13.414s-.083 1.037 1.453 1.037c1.52 0 1.536-1.088 1.536-1.088V1.14S83.483.051 81.914.051c-1.536 0-1.453 1.14-1.453 1.14v12.223zM13.775 14.876c-.45.068-.852.102-1.236.136l-.117-.612.418-7.14s.083-.918-1.503-1.003c-1.553-.085-1.603.833-1.603.833L9.3 14.417c-.033.46-.133.714-.367.714H6.929c-.117 0-.167-.153-.183-.357l-.551-7.463s-.1-1.088-1.637-.952c-1.536.136-1.452 1.224-1.452 1.224l.55 7.327v.255c-1.469.017-2.103-.034-2.303-.034-.217 0-1.336.051-1.353 1.667-.017 1.58 1.119 1.58 1.32 1.58.2 0 .183.052 2.77.018 6.078-.085 6.796.017 9.485-.34 1.636-.306 2.588-.833 2.387-2.228-.284-1.547-1.369-1.02-2.187-.952zM34.746 14.876c-1.37.204-3.724.46-6.495.46-1.486 0-1.586-.273-1.586-1.055V11.34h7.029s1.002-.068 1.018-1.462V3.825v-.034c0-1.564-1.068-1.58-1.068-1.58H24.56s-1.069-.035-1.069 1.58c0 1.581 1.119 1.547 1.119 1.547l6.862.068c.184.017.2.085.2.307v2.04c-.016.425-.066.68-.333.68h-7.247s-.751 0-.985.867c-.033.136-.066.272-.066.578 0 .425.133.595.4 1.122.084.272.15.561.15.85v4.097c0 1.667 1.32 2.636 4.225 2.636 2.905 0 6.01-.29 7.046-.544 1.469-.374 1.903-1.156 1.786-2.04-.167-1.038-.534-1.344-1.903-1.123zM54.598 4.318c0-1.445-.384-1.802-1.753-1.802h-8.699s-.751 0-.985.867c-.033.136-.067.272-.067.578 0 .425.134.595.4 1.122.084.272.151.562.151.85l.2 8.603c0 2.228 1.503 3.962 4.392 3.962 2.087 0 3.272-.731 3.272-.731s-.067.816 1.503.816c1.553 0 1.503-1.31 1.503-1.31l.083-12.955zM51.51 14.485c-.818.51-1.72.748-2.822.748-1.485 0-1.77-.884-1.77-1.768l.017-7.752 4.275-.017c.267 0 .35.153.35.357l-.05 8.432zM62.412 9.01h-2.154V1.123s.034-1.071-1.62-1.071c-1.636 0-1.519 1.14-1.519 1.14v19.755s-.083 1.02 1.52 1.02 1.62-1.088 1.62-1.088v-8.943h2.22s1.018-.068 1.018-1.479c-.016-1.428-1.085-1.445-1.085-1.445zM73.549 9.079c.284.306.634.34.634.34h1.97v2.312s.017 1.088 1.57 1.088c1.57 0 1.486-1.02 1.486-1.02V1.853s.1-1.139-1.486-1.139c-1.603 0-1.57 1.071-1.57 1.071v4.71H74.25c.167-.918.25-1.837.25-2.72 0-1.565-1.068-1.565-1.068-1.565h-6.963s-1.051-.153-1.051 1.445c0 1.581 1.118 1.564 1.118 1.564h3.89c.401 0 .635.17.568.562-.05.306-.117.612-.183.9h-4.458s-1.07-.016-1.07 1.446 1.12 1.496 1.12 1.496h3.272c-.851 1.445-2.037 2.363-3.473 2.703-1.386.323-1.786.731-1.786 1.462s.55 1.598 1.452 1.598c3.857.017 6.412-2.873 7.68-6.307z" transform="translate(-20.000000, -57.000000) translate(-30.000000, -14.000000) translate(30.000000, 14.000000) translate(20.000000, 57.000000)"/>
                        <path d="M76.62 13.482l-2.17-.034c-1.052 0-1.152.544-1.102.97.05.39.15.34.084.662-.384 1.973-3.723 3.537-5.243 3.656-1.42.119-1.67.833-1.686 1.547-.017.714.517 1.581 1.436 1.581 4.424.068 8.565-3.281 9.417-7.022.167-.748.033-1.343-.735-1.36zM83.85 18.498c-1.235-.748-4.174-1.853-5.326-2.092-.65-.136-1.269.103-1.586.936-.317.833-.267 1.547.367 1.836.635.289 2.806 1.173 4.425 2.057 1.603.884 2.288.782 2.822-.068.751-1.224.584-1.887-.701-2.67z" transform="translate(-20.000000, -57.000000) translate(-30.000000, -14.000000) translate(30.000000, 14.000000) translate(20.000000, 57.000000)"/>
                    </g>
                </g>
            </g>
        </g>
    </g>
</svg>
